# xmcd CD database file
#
# Track frame offsets:
#	150
#	37476
#	66547
#	95167
#	113848
#	155811
#	186353
#	216632
#	255719
#
# Disc length: 3751 seconds
#
# Revision: 0
# Processed by: cddbd v1.5.1PL0 Copyright (c) Steve Scherf et al.
# Submitted via: CDex 1.51
#
DISCID=9a0ea509
DTITLE=Doc Houlind New Orleans All Star - On tour
DYEAR=2002
DGENRE=Jazz
TTITLE0=Darling Nelly Grey (Handy)
TTITLE1=Lord Lord Lord (trad.)
TTITLE2=Caldonia (F.Moore)
TTITLE3=Burgundy Street Blues (G.Lewis)
TTITLE4=Louisiana-I-Ay (Darensbourg)
TTITLE5=Do You Know What It Means To Miss New Orleans (Alter/Lange)
TTITLE6=Jelly Roll (Williams)
TTITLE7=Gloryland (Dean)
TTITLE8=What A Wonderful World (Weiss/Douglas)
EXTD=YEAR: 2002
EXTT0=
EXTT1=
EXTT2=
EXTT3=
EXTT4=
EXTT5=
EXTT6=
EXTT7=
EXTT8=
PLAYORDER=
